<?xml version="1.0" standalone="no"?><!DOCTYPE svg PUBLIC "-//W3C//DTD SVG 1.1//EN" "http://www.w3.org/Graphics/SVG/1.1/DTD/svg11.dtd"><svg t="1558832073033" class="icon" style="" viewBox="0 0 1024 1024" version="1.1" xmlns="http://www.w3.org/2000/svg" p-id="2609" xmlns:xlink="http://www.w3.org/1999/xlink" width="200" height="200"><defs><style type="text/css"></style></defs><path d="M988.8 95.7h-955c-1.1 0-2 0.9-2 2v571.4c0 1.1 0.9 2 2 2h955c1.1 0 2-0.9 2-2V97.7c0-1.1-0.9-2-2-2z m-93.9 510.4c0 0.6-0.4 1-1 1H704.1c-0.5 0-1-0.4-1-1v-61.9c0-0.5 0.5-1 1-1h189.8c0.5 0 1 0.5 1 1v61.9z m32-127.8c0 0.5-0.5 1-1 1H96.8c-0.6 0-1-0.5-1-1v-61.9c0-0.6 0.4-1 1-1h829.1c0.5 0 1 0.4 1 1v61.9zM478.4 926.8h-61.9c-0.6 0-1-0.5-1-1V736c0-0.5 0.4-1 1-1h61.9c0.5 0 1 0.5 1 1v189.8c0 0.6-0.5 1-1 1zM606.2 926.8h-61.9c-0.5 0-1-0.5-1-1V736c0-0.5 0.5-1 1-1h61.9c0.5 0 1 0.5 1 1v189.8c0 0.6-0.4 1-1 1zM734.1 926.8h-61.9c-0.5 0-1-0.5-1-1V736c0-0.5 0.5-1 1-1h61.9c0.5 0 1 0.5 1 1v189.8c0 0.6-0.5 1-1 1zM862 926.8h-62c-0.5 0-1-0.5-1-1V736c0-0.5 0.5-1 1-1h62c0.5 0 1 0.5 1 1v189.8c0 0.6-0.5 1-1 1zM222.6 926.8h-61.9c-0.6 0-1-0.5-1-1V736c0-0.5 0.4-1 1-1h61.9c0.6 0 1 0.5 1 1v189.8c0 0.6-0.4 1-1 1zM350.5 926.8h-61.9c-0.5 0-1-0.5-1-1V736c0-0.5 0.5-1 1-1h61.9c0.5 0 1 0.5 1 1v189.8c0 0.6-0.4 1-1 1z" p-id="2610" fill="#dbdbdb"></path></svg>