<?xml version="1.0" standalone="no"?><!DOCTYPE svg PUBLIC "-//W3C//DTD SVG 1.1//EN" "http://www.w3.org/Graphics/SVG/1.1/DTD/svg11.dtd"><svg t="1561342847071" class="icon" viewBox="0 0 1073 1024" version="1.1" xmlns="http://www.w3.org/2000/svg" p-id="5962" xmlns:xlink="http://www.w3.org/1999/xlink" width="50.296875" height="48"><defs><style type="text/css"></style></defs><path d="M121.904762 902.095238m-121.904762 0a2.5 2.5 0 1 0 243.809524 0 2.5 2.5 0 1 0-243.809524 0Z" p-id="5963" fill="#dbdbdb"></path><path d="M536.380952 512m-121.904762 0a2.5 2.5 0 1 0 243.809524 0 2.5 2.5 0 1 0-243.809524 0Z" p-id="5964" fill="#dbdbdb"></path><path d="M536.380952 121.904762m-121.904762 0a2.5 2.5 0 1 0 243.809524 0 2.5 2.5 0 1 0-243.809524 0Z" p-id="5965" fill="#dbdbdb"></path><path d="M121.904762 121.904762m-121.904762 0a2.5 2.5 0 1 0 243.809524 0 2.5 2.5 0 1 0-243.809524 0Z" p-id="5966" fill="#dbdbdb"></path><path d="M121.904762 512m-121.904762 0a2.5 2.5 0 1 0 243.809524 0 2.5 2.5 0 1 0-243.809524 0Z" p-id="5967" fill="#dbdbdb"></path><path d="M536.380952 902.095238m-121.904762 0a2.5 2.5 0 1 0 243.809524 0 2.5 2.5 0 1 0-243.809524 0Z" p-id="5968" fill="#dbdbdb"></path><path d="M950.857143 902.095238m-121.904762 0a2.5 2.5 0 1 0 243.809524 0 2.5 2.5 0 1 0-243.809524 0Z" p-id="5969" fill="#dbdbdb"></path><path d="M950.857143 121.904762m-121.904762 0a2.5 2.5 0 1 0 243.809524 0 2.5 2.5 0 1 0-243.809524 0Z" p-id="5970" fill="#dbdbdb"></path><path d="M950.857143 512m-121.904762 0a2.5 2.5 0 1 0 243.809524 0 2.5 2.5 0 1 0-243.809524 0Z" p-id="5971" fill="#dbdbdb"></path></svg>