<?xml version="1.0" standalone="no"?><!DOCTYPE svg PUBLIC "-//W3C//DTD SVG 1.1//EN" "http://www.w3.org/Graphics/SVG/1.1/DTD/svg11.dtd"><svg t="1561342784938" class="icon" viewBox="0 0 1024 1024" version="1.1" xmlns="http://www.w3.org/2000/svg" p-id="4450" xmlns:xlink="http://www.w3.org/1999/xlink" width="48" height="48"><defs><style type="text/css"></style></defs><path d="M908.322788 396.322788c0-218.894578-177.42821-396.322788-396.322788-396.322788-218.894578 0-396.322788 177.42821-396.322788 396.322788 0 147.125864 80.24141 275.611798 199.257861 343.991434 21.630293 12.459846 26.514553 41.566047 10.167234 60.505013L189.638859 958.112333c-22.228366 25.816801-3.887472 65.887667 30.202667 65.887667h601.461696c34.090139 0 52.530712-40.070865 30.202667-65.887667L710.261073 794.041079c-15.948603-18.540251-11.662416-47.048379 9.170447-59.906941 113.334761-69.775139 188.891268-194.971673 188.891268-337.81135zM320.118369 898.305072l75.656186-87.816996c7.575586-8.771732 18.63993-13.855349 30.202667-13.855349h189.289983c11.562737 0 22.627081 5.083617 30.202667 13.855349l75.656187 87.816996c22.228366 25.816801 3.887472 65.887667-30.202668 65.887666H350.420714c-34.189818 0-52.63039-40.070865-30.302345-65.887666z m322.859534-191.881632c-41.466368 17.543463-85.524384 26.414874-130.977903 26.414874-45.453519 0-89.511535-8.87141-130.977903-26.414874-40.070865-16.945391-76.054901-41.267011-106.95532-72.167429-30.900419-30.900419-55.222038-66.884454-72.167429-106.95532-17.543463-41.466368-26.414874-85.524384-26.414874-130.977903 0-45.453519 8.87141-89.511535 26.414874-130.977903 16.945391-40.070865 41.267011-76.054901 72.167429-106.95532 30.900419-30.900419 66.884454-55.222038 106.95532-72.167429 41.466368-17.543463 85.524384-26.414874 130.977903-26.414874 45.453519 0 89.511535 8.87141 130.977903 26.414874 40.070865 16.945391 76.054901 41.267011 106.95532 72.167429 30.900419 30.900419 55.222038 66.884454 72.167429 106.95532 17.543463 41.466368 26.414874 85.524384 26.414874 130.977903 0 45.453519-8.87141 89.511535-26.414874 130.977903-16.945391 40.070865-41.267011 76.054901-72.167429 106.95532-30.900419 30.900419-66.884454 55.222038-106.95532 72.167429z" fill="#dbdbdb" p-id="4451"></path><path d="M512 305.017035c-103.466563 0-187.396087 83.929524-187.396087 187.396087s83.929524 187.396087 187.396087 187.396087 187.396087-83.929524 187.396087-187.396087-83.929524-187.396087-187.396087-187.396087z m90.209286 277.605373c-24.122262 24.122262-56.119147 37.379539-90.209286 37.379539s-66.087024-13.257276-90.209286-37.379539C397.668451 558.500146 384.411175 526.503261 384.411175 492.413122s13.257276-66.087024 37.379539-90.209287c24.122262-24.122262 56.119147-37.379539 90.209286-37.379538s66.087024 13.257276 90.209286 37.379538c24.122262 24.122262 37.379539 56.119147 37.379539 90.209287s-13.257276 66.087024-37.379539 90.209286z" fill="#dbdbdb" p-id="4452"></path><path d="M493.363762 234.696691a48.742918 48.742918 0 1 0 37.306215-90.06517 48.742918 48.742918 0 1 0-37.306215 90.06517Z" fill="#dbdbdb" p-id="4453"></path></svg>