<?xml version="1.0" standalone="no"?>
<!DOCTYPE svg PUBLIC "-//W3C//DTD SVG 1.1//EN" "http://www.w3.org/Graphics/SVG/1.1/DTD/svg11.dtd">
<svg xmlns="http://www.w3.org/2000/svg" xmlns:xlink="http://www.w3.org/1999/xlink" width="200" height="200" class="icon" p-id="1250" style="" t="1558777538981" version="1.1" viewBox="0 0 1024 1024">
    <defs>
        <style type="text/css"/>
    </defs>
    <path fill="#dbdbdb" d="M999.98 352h-119.74l-33.28-83.2C812.76 183.26 731.14 128 639 128h-254c-92.12 0-173.76 55.26-207.98 140.8L143.74 352H24.02C8.4 352-3.06 366.68 0.74 381.82l12 48C15.4 440.5 25 448 36.02 448h40.14C49.3 471.46 32 505.56 32 544v96c0 32.24 12.32 61.34 32 83.86V832c0 35.34 28.66 64 64 64h64c35.34 0 64-28.66 64-64v-64h512v64c0 35.34 28.66 64 64 64h64c35.34 0 64-28.66 64-64v-108.14c19.68-22.5 32-51.6 32-83.86v-96c0-38.44-17.3-72.54-44.14-96H988c11.02 0 20.62-7.5 23.28-18.18l12-48c3.78-15.14-7.68-29.82-23.3-29.82z m-704.12-35.66c14.58-36.44 49.88-60.34 89.14-60.34h254c39.26 0 74.56 23.9 89.14 60.34L768 416H256l39.86-99.66zM192 639.6c-38.4 0-64-25.52-64-63.8S153.6 512 192 512s96 57.42 96 95.7-57.6 31.9-96 31.9z m640 0c-38.4 0-96 6.38-96-31.9S793.6 512 832 512s64 25.52 64 63.8-25.6 63.8-64 63.8z" p-id="1251"/>
</svg>
