<?xml version="1.0" standalone="no"?><!DOCTYPE svg PUBLIC "-//W3C//DTD SVG 1.1//EN" "http://www.w3.org/Graphics/SVG/1.1/DTD/svg11.dtd"><svg t="1558833025000" class="icon" style="" viewBox="0 0 1024 1024" version="1.1" xmlns="http://www.w3.org/2000/svg" p-id="7319" xmlns:xlink="http://www.w3.org/1999/xlink" width="200" height="200"><defs><style type="text/css"></style></defs><path d="M877 959H147a50 50 0 0 1-50-50V115a50 50 0 0 1 50-50h730a50 50 0 0 1 50 50v794a50 50 0 0 1-50 50zM404 125H177a20 20 0 0 0-20 20v734a20 20 0 0 0 20 20h227V125z m152 0h-92v774h92V125z m311 20a20 20 0 0 0-20-20H616v774h231a20 20 0 0 0 20-20V145zM764.735 623.859A29.94 29.94 0 0 1 739.933 637h-0.023a29.845 29.845 0 0 1-19.231-6.988c-0.126-0.1-0.244-0.215-0.369-0.319q-0.5-0.438-0.989-0.895c-0.333-0.3-0.68-0.585-1-0.907L661.8 571.322a29.986 29.986 0 1 1 42.389-42.422l5.748 5.753v-115.68A29.973 29.973 0 0 1 739.91 389h0.023a29.973 29.973 0 0 1 29.973 29.973V533.83l4.93-4.934a29.986 29.986 0 0 1 42.388 42.426zM255.306 401.1a29.969 29.969 0 0 1 43.942-6.166c0.235 0.19 0.459 0.4 0.69 0.6q0.266 0.236 0.525 0.475c0.408 0.366 0.827 0.71 1.218 1.1l56.519 56.569a29.986 29.986 0 0 1-42.389 42.422l-5.76-5.764v115.691a29.973 29.973 0 0 1-59.946 0V491.158l-4.941 4.946a29.986 29.986 0 0 1-42.388-42.426z" fill="#dbdbdb" p-id="7320"></path></svg>