<?xml version="1.0" standalone="no"?><!DOCTYPE svg PUBLIC "-//W3C//DTD SVG 1.1//EN" "http://www.w3.org/Graphics/SVG/1.1/DTD/svg11.dtd"><svg t="1558777974914" class="icon" style="" viewBox="0 0 1031 1024" version="1.1" xmlns="http://www.w3.org/2000/svg" p-id="12566" xmlns:xlink="http://www.w3.org/1999/xlink" width="201.3671875" height="200"><defs><style type="text/css"></style></defs><path d="M896.423 297.212c0-141.525-114.825-256.252-256.474-256.252-46.49 0-90.035 12.425-127.635 34.03-37.59-21.605-81.13-34.03-127.62-34.03-141.652 0-256.502 114.727-256.502 256.252 0 82.102 38.692 155.142 98.815 202.034C97.147 557.574 5.72 685.943 0.852 836.228 0.065 839.453 0 850.198 0 850.198c0 23.495 19.04 42.51 42.547 42.51 23.485 0 42.542-19.015 42.542-42.51l0.79-1.365c0.36-155.915 120.36-283.679 273.149-296.669l0.003 0c8.445 0.84 17.005 1.275 25.667 1.275 8.66 0 17.22-0.435 25.665-1.275l0.003 0c62.577 5.32 119.592 29.945 165.172 67.835 1.29-2.4 2.93-4.655 4.93-6.675 15.765-15.955 28.96-33.28 48.38-45.265 3.685-2.27 7.715-3.525 11.815-3.905-4.17-3.77-8.405-7.475-12.75-11.055 4 0.18 30.04-0.175 37.695-0.935 15.71-1.565 30.995-4.565 45.735-8.825l0.025 0.025c34.39 14.915 71.51 35.98 105.585 63.645 6.52-12.065 15.745-22.715 26.49-31.12 12.07-9.44 25.58-17.75 40.335-22.23-26.145-21.66-55.2-39.94-86.54-54.095C857.573 452.681 896.423 379.489 896.423 297.212zM384.077 472.944c-97.007 0-175.64-78.632-175.64-175.637 0-97.002 78.635-175.627 175.64-175.627 96.992 0 175.627 78.63 175.627 175.627C559.704 394.312 481.069 472.944 384.077 472.944zM719.408 447.056c-2.79 1.14-5.47 2.49-8.03 4.025-16.62 7.765-34.69 12.945-53.705 14.992l-16.835 0.97c-0.54 0.005-1.085 0.038-1.635 0.038-19.21 0-37.685-3.185-54.91-9.04 35.55-43.975 56.88-99.9 56.88-160.827 0-61.345-21.595-117.63-57.57-161.74 17.42-6.01 36.125-9.297 55.6-9.297 94.22 0 170.61 76.307 170.61 170.457C809.813 361.797 773.188 418.379 719.408 447.056zM820.903 823.383l19.95 19.445-12.805 12.805c0 0-9.355 9.85 2.83 22.4l100.325 99.715c0 0 9.595 8.615 20.19 1.235l50.225-48.755c0 0 8.855-11.815-2.96-22.645l-99.46-98.485c0 0-10.84-10.59-22.895-1.48l-13.05 13.3-20.925-20.68L820.903 823.383zM807.118 766.023l-107.59-106.12 0-32.74-63.515-37.67-31.43 30.525 38.325 61.065 33.725 0.24 106.115 104.39L807.118 766.023zM633.548 944.513c0 0 0-16.25 16.985-16.25 0 0 15.275 0.495 15.755 16.25 0 0-0.48 14.77-16.365 15.755l-14.165 14.03c0 0 20.685 19.205 44.075 0l191.794-205.57c0 0 20.925 14.025 52.435 13.785 0 0 38.49 1.475 68.685-24.785 0 0 58.925-46.205 28.725-118.505l-68.605 66.31-58.105-57.445 68.605-65.65c0 0-43.66-25.61-102.74 11.485 0 0-30.53 21.34-39.725 59.745 0 0-13.785 45.63 17.07 86.66L622.308 917.263c0 0-13.465 13.135-6.89 32.5L633.548 944.513zM633.548 944.513c0 0 1.31 15.43 16.375 15.755l-14.155 14.03c0 0-18.62-15.985-20.35-24.535L633.548 944.513z" p-id="12567" fill="#dbdbdb"></path></svg>