<?xml version="1.0" standalone="no"?><!DOCTYPE svg PUBLIC "-//W3C//DTD SVG 1.1//EN" "http://www.w3.org/Graphics/SVG/1.1/DTD/svg11.dtd"><svg t="1558832818032" class="icon" style="" viewBox="0 0 1024 1024" version="1.1" xmlns="http://www.w3.org/2000/svg" p-id="6174" xmlns:xlink="http://www.w3.org/1999/xlink" width="200" height="200"><defs><style type="text/css"></style></defs><path d="M998.4 416L524.8 6.4c-6.4-6.4-19.2-6.4-25.6 0L25.6 416c-6.4 6.4-6.4 19.2 0 32 6.4 0 19.2 6.4 25.6 0l32-25.6v588.8h6.4c0 6.4 0 12.8 6.4 12.8 0-6.4 6.4 0 12.8 0h793.6c6.4 0 6.4 0 12.8-6.4s6.4-6.4 6.4-12.8V416l51.2 32c6.4 6.4 19.2 6.4 25.6 0 12.8-12.8 12.8-25.6 0-32zM531.2 620.8h134.4c12.8 0 25.6 12.8 25.6 25.6s-12.8 25.6-25.6 25.6h-128v70.4h128c12.8 0 25.6 12.8 25.6 25.6s-12.8 25.6-25.6 25.6h-128v83.2c0 12.8-12.8 25.6-25.6 25.6s-32-6.4-32-19.2v-83.2h-128c-19.2 0-32-12.8-32-32s12.8-25.6 25.6-25.6h128v-70.4h-128c-12.8 0-25.6-12.8-25.6-25.6s12.8-25.6 25.6-25.6h134.4v-6.4s-6.4 0-6.4-6.4L377.6 492.8c-6.4-12.8-6.4-25.6 6.4-38.4 6.4-6.4 25.6-6.4 38.4 6.4L512 563.2l89.6-102.4c6.4-12.8 19.2-12.8 32-6.4 12.8 12.8 12.8 25.6 6.4 38.4L537.6 614.4l-6.4 6.4z" fill="#dbdbdb" p-id="6175"></path></svg>