<?xml version="1.0" standalone="no"?><!DOCTYPE svg PUBLIC "-//W3C//DTD SVG 1.1//EN" "http://www.w3.org/Graphics/SVG/1.1/DTD/svg11.dtd"><svg t="1561341892377" class="icon" viewBox="0 0 1024 1024" version="1.1" xmlns="http://www.w3.org/2000/svg" p-id="3455" xmlns:xlink="http://www.w3.org/1999/xlink" width="48" height="48"><defs><style type="text/css"></style></defs><path d="M912.782779 96.187867l-801.565558 0C49.891444 96.187867 0 146.079311 0 207.405088l0 609.189824C0 877.920689 49.891444 927.812133 111.217221 927.812133l801.565558 0c61.325777 0 111.217221-49.891444 111.217221-111.217221l0-609.189824C1024 146.079311 974.108556 96.187867 912.782779 96.187867zM993.941292 816.594912c0 44.751405-36.407108 81.158513-81.158513 81.158513l-801.565558 0C66.465816 897.753425 30.058708 861.346317 30.058708 816.594912l0-609.189824C30.058708 162.653683 66.465816 126.246575 111.217221 126.246575l801.565558 0c44.751405 0 81.158513 36.407108 81.158513 81.158513L993.941292 816.594912z" p-id="3456" fill="#dbdbdb"></path><path d="M239.46771 240.469667l-64.125245 0C149.37575 240.469667 128.250489 261.594928 128.250489 287.561644l0 64.125245c0 25.966716 21.12526 47.091977 47.091977 47.091977l64.125245 0c25.966716 0 47.091977-21.12526 47.091977-47.091977l0-64.125245C286.559687 261.594928 265.434427 240.469667 239.46771 240.469667zM256.500978 351.686888c0 9.392344-7.640924 17.033268-17.033268 17.033268l-64.125245 0c-9.392344 0-17.033268-7.640924-17.033268-17.033268l0-64.125245c0-9.392344 7.640924-17.033268 17.033268-17.033268l64.125245 0c9.392344 0 17.033268 7.640924 17.033268 17.033268L256.500978 351.686888z" p-id="3457" fill="#dbdbdb"></path><path d="M864.688845 304.594912l-496.970646 0c-8.300211 0-15.029354 6.729143-15.029354 15.029354s6.729143 15.029354 15.029354 15.029354l496.970646 0c8.300211 0 15.029354-6.729143 15.029354-15.029354S872.989057 304.594912 864.688845 304.594912z" p-id="3458" fill="#dbdbdb"></path><path d="M239.46771 432.845401l-64.125245 0C149.37575 432.845401 128.250489 453.970661 128.250489 479.937378l0 64.125245c0 25.966716 21.12526 47.091977 47.091977 47.091977l64.125245 0c25.966716 0 47.091977-21.12526 47.091977-47.091977l0-64.125245C286.559687 453.970661 265.434427 432.845401 239.46771 432.845401zM256.500978 544.062622c0 9.392344-7.640924 17.033268-17.033268 17.033268l-64.125245 0c-9.392344 0-17.033268-7.640924-17.033268-17.033268l0-64.125245c0-9.392344 7.640924-17.033268 17.033268-17.033268l64.125245 0c9.392344 0 17.033268 7.640924 17.033268 17.033268L256.500978 544.062622z" p-id="3459" fill="#dbdbdb"></path><path d="M864.688845 496.970646l-496.970646 0c-8.300211 0-15.029354 6.729143-15.029354 15.029354s6.729143 15.029354 15.029354 15.029354l496.970646 0c8.300211 0 15.029354-6.729143 15.029354-15.029354S872.989057 496.970646 864.688845 496.970646z" p-id="3460" fill="#dbdbdb"></path><path d="M239.46771 625.221135l-64.125245 0C149.37575 625.221135 128.250489 646.346395 128.250489 672.313112l0 64.125245c0 25.966716 21.12526 47.091977 47.091977 47.091977l64.125245 0c25.966716 0 47.091977-21.12526 47.091977-47.091977l0-64.125245C286.559687 646.346395 265.434427 625.221135 239.46771 625.221135zM256.500978 736.438356c0 9.392344-7.640924 17.033268-17.033268 17.033268l-64.125245 0c-9.392344 0-17.033268-7.640924-17.033268-17.033268l0-64.125245c0-9.392344 7.640924-17.033268 17.033268-17.033268l64.125245 0c9.392344 0 17.033268 7.640924 17.033268 17.033268L256.500978 736.438356z" p-id="3461" fill="#dbdbdb"></path><path d="M864.688845 689.34638l-496.970646 0c-8.300211 0-15.029354 6.729143-15.029354 15.029354s6.729143 15.029354 15.029354 15.029354l496.970646 0c8.300211 0 15.029354-6.729143 15.029354-15.029354S872.989057 689.34638 864.688845 689.34638z" p-id="3462" fill="#dbdbdb"></path></svg>