<?xml version="1.0" standalone="no"?><!DOCTYPE svg PUBLIC "-//W3C//DTD SVG 1.1//EN" "http://www.w3.org/Graphics/SVG/1.1/DTD/svg11.dtd"><svg t="1561344704833" class="icon" viewBox="0 0 1024 1024" version="1.1" xmlns="http://www.w3.org/2000/svg" p-id="7618" xmlns:xlink="http://www.w3.org/1999/xlink" width="48" height="48"><defs><style type="text/css"></style></defs><path d="M510.717917 848.720759c-28.226862 0-56.455523-2.562263-83.397257-7.694783l-196.303906 119.327696 0-197.588635c-102.63961-71.852084-168.074645-182.189076-168.074645-305.359766 0-216.831388 200.154295-392.605214 447.775808-392.605214 247.617515 0 447.766215 175.773825 447.766215 392.605214C958.484132 674.231463 758.335433 848.720759 510.717917 848.720759zM510.717917 121.253382c-216.832987 0-392.61041 150.111824-392.61041 336.152089 0 114.186781 66.718565 214.263729 166.793914 274.566644L284.901421 862.839986l132.154999-79.553862c30.793922 6.425643 61.582047 10.273035 94.942429 10.273035 216.82839 0 392.600817-150.114822 392.600817-336.153688C903.323731 271.365206 727.541311 121.253382 510.717917 121.253382zM707.020224 429.178209 314.409414 429.178209c-15.391565 0-28.221866-12.830301-28.221866-28.227262 0-15.394962 12.830301-28.225263 28.221866-28.225263l392.61081 0c15.396561 0 28.223864 12.830301 28.223864 28.225263C735.244089 416.347908 722.416785 429.178209 707.020224 429.178209zM370.866137 540.798331l279.696566 0c15.394562 0 28.226862 12.8313 28.226862 28.228861 0 15.392564-12.8323 28.230859-28.226862 28.230859L370.866137 597.258051c-15.396961 0-28.223864-12.830301-28.223864-28.230859C342.642273 553.629431 355.468976 540.798331 370.866137 540.798331z" p-id="7619" fill="#e6e6e6"></path></svg>