<?xml version="1.0" standalone="no"?><!DOCTYPE svg PUBLIC "-//W3C//DTD SVG 1.1//EN" "http://www.w3.org/Graphics/SVG/1.1/DTD/svg11.dtd"><svg t="1561344814552" class="icon" viewBox="0 0 1024 1024" version="1.1" xmlns="http://www.w3.org/2000/svg" p-id="8457" xmlns:xlink="http://www.w3.org/1999/xlink" width="48" height="48"><defs><style type="text/css"></style></defs><path d="M772.654545 900.654545l-13.963636-4.654545C165.236364 714.472727 128 265.309091 125.672727 260.654545V232.727273l155.927273-116.363637 160.581818 209.454546-81.454545 90.763636c27.927273 95.418182 174.545455 200.145455 242.036363 242.036364l109.381819-74.472727 190.836363 169.890909-130.327273 146.618181zM172.218182 258.327273c2.327273 25.6 44.218182 416.581818 586.472727 588.8l83.781818-88.436364-128-114.036364-104.727272 69.818182-11.636364-6.981818c-9.309091-6.981818-249.018182-146.618182-279.272727-290.909091l-2.327273-11.636363 72.145454-79.127273L279.272727 183.854545l-107.054545 74.472728z" p-id="8458" fill="#dbdbdb"></path></svg>