<?xml version="1.0" standalone="no"?><!DOCTYPE svg PUBLIC "-//W3C//DTD SVG 1.1//EN" "http://www.w3.org/Graphics/SVG/1.1/DTD/svg11.dtd"><svg t="1558777770845" class="icon" style="" viewBox="0 0 1024 1024" version="1.1" xmlns="http://www.w3.org/2000/svg" p-id="9045" xmlns:xlink="http://www.w3.org/1999/xlink" width="200" height="200"><defs><style type="text/css"></style></defs><path d="M258.56 76.8c-28.16 0-53.76 5.12-79.36 17.92-15.36 7.68-20.48 28.16-7.68 40.96l87.04 87.04-30.72 30.72-87.04-87.04c-5.12-5.12-10.24-7.68-17.92-7.68-10.24 0-17.92 5.12-23.04 15.36-33.28 66.56-23.04 151.04 33.28 207.36 35.84 35.84 79.36 51.2 125.44 51.2 20.48 0 40.96-2.56 58.88-10.24l284.16 284.16c-23.04 64-7.68 135.68 40.96 186.88 35.84 35.84 79.36 51.2 125.44 51.2 28.16 0 53.76-5.12 79.36-17.92 15.36-7.68 20.48-28.16 7.68-40.96l-87.04-87.04 30.72-30.72 87.04 87.04c5.12 5.12 10.24 7.68 17.92 7.68 10.24 0 17.92-5.12 23.04-15.36 33.28-66.56 23.04-151.04-33.28-207.36-35.84-35.84-79.36-51.2-125.44-51.2-20.48 0-40.96 2.56-61.44 10.24l-284.16-284.16c23.04-64 7.68-135.68-40.96-186.88-33.28-33.28-76.8-51.2-122.88-51.2z m-33.28 230.4c12.8 0 25.6-5.12 35.84-15.36l30.72-30.72c20.48-20.48 20.48-51.2 0-71.68l-58.88-58.88c7.68 0 15.36-2.56 23.04-2.56 33.28 0 66.56 12.8 89.6 38.4 35.84 35.84 46.08 87.04 30.72 133.12-7.68 17.92-2.56 38.4 12.8 53.76l284.16 284.16c10.24 10.24 23.04 15.36 35.84 15.36 5.12 0 12.8 0 17.92-2.56 12.8-5.12 28.16-7.68 43.52-7.68 33.28 0 66.56 12.8 89.6 38.4 30.72 30.72 43.52 71.68 35.84 112.64l-58.88-58.88c-10.24-10.24-23.04-15.36-35.84-15.36-12.8 0-25.6 5.12-35.84 15.36l-30.72 30.72c-10.24 10.24-15.36 23.04-15.36 35.84s5.12 25.6 15.36 35.84l58.88 58.88c-7.68 0-15.36 2.56-23.04 2.56-33.28 0-66.56-12.8-89.6-38.4-35.84-35.84-46.08-87.04-30.72-133.12 7.68-17.92 2.56-38.4-12.8-53.76l-284.16-284.16c-10.24-10.24-23.04-15.36-35.84-15.36-5.12 0-10.24 0-17.92 2.56-12.8 5.12-28.16 7.68-43.52 7.68-33.28 0-66.56-12.8-89.6-38.4-30.72-30.72-43.52-71.68-35.84-112.64l58.88 58.88c10.24 10.24 23.04 15.36 35.84 15.36z" p-id="9046" fill="#dbdbdb"></path><path d="M337.92 563.2c-12.8 0-25.6 5.12-35.84 15.36l-184.32 184.32c-20.48 20.48-20.48 51.2 0 71.68l71.68 71.68c10.24 10.24 23.04 15.36 35.84 15.36 12.8 0 25.6-5.12 35.84-15.36l184.32-184.32c20.48-20.48 20.48-51.2 0-71.68l-71.68-71.68c-7.68-10.24-20.48-15.36-35.84-15.36z m-110.08 307.2l-71.68-71.68 184.32-184.32 71.68 71.68-184.32 184.32zM849.92 138.24l35.84 35.84-89.6 89.6-17.92-17.92-17.92-17.92 89.6-89.6m0-61.44c-7.68 0-12.8 2.56-17.92 7.68l-125.44 125.44c-10.24 10.24-10.24 25.6 0 35.84l17.92 17.92-125.44 125.44c-10.24 10.24-10.24 25.6 0 35.84 5.12 5.12 12.8 7.68 17.92 7.68s12.8-2.56 17.92-7.68l125.44-125.44 17.92 17.92c5.12 5.12 12.8 7.68 17.92 7.68s12.8-2.56 17.92-7.68l125.44-125.44c10.24-10.24 10.24-25.6 0-35.84l-71.68-71.68c-2.56-5.12-10.24-7.68-17.92-7.68z" p-id="9047" fill="#dbdbdb"></path></svg>