<?xml version="1.0" standalone="no"?><!DOCTYPE svg PUBLIC "-//W3C//DTD SVG 1.1//EN" "http://www.w3.org/Graphics/SVG/1.1/DTD/svg11.dtd"><svg t="1558777734160" class="icon" style="" viewBox="0 0 1024 1024" version="1.1" xmlns="http://www.w3.org/2000/svg" p-id="7431" xmlns:xlink="http://www.w3.org/1999/xlink" width="200" height="200"><defs><style type="text/css"></style></defs><path d="M893.456828 709.055005" p-id="7432" fill="#dbdbdb"></path><path d="M491.889987 337.939709" p-id="7433" fill="#dbdbdb"></path><path d="M568.154951 338.993714" p-id="7434" fill="#dbdbdb"></path><path d="M811.726386 700.232059 730.170928 700.232059l-621.863177 0c-11.259438 0-26.751271 10.216689-26.751271 21.47715l0 142.722562c0 11.259438 15.490809 18.972097 26.751271 18.972097l621.863177 0 81.555457 0c11.259438 0 13.773701-7.712659 13.773701-18.972097L825.500087 721.709209C825.500087 710.449771 822.985824 700.232059 811.726386 700.232059zM122.488729 741.164307l581.237921 0 0 102.33062-581.237921 0L122.488729 741.164307 122.488729 741.164307zM784.567839 843.494926l-39.908942 0 0-102.33062 39.908942 0L784.567839 843.494926z" p-id="7435" fill="#dbdbdb"></path><path d="M896.677173 321.148277c-6.540973-5.296633-13.290701-10.313903-19.981077-15.282055-45.337581-33.629935-78.091566-57.931411-14.793938-168.377872 0.226151-0.394996 0.346901-0.816598 0.543376-1.218758 0.36225-0.74292 0.737804-1.477654 1.006933-2.257413 0.216941-0.623193 0.333598-1.255597 0.488117-1.888 0.156566-0.645706 0.338714-1.280156 0.432859-1.940189 0.094144-0.678452 0.094144-1.353834 0.121773-2.034333 0.024559-0.639566 0.079818-1.274016 0.045025-1.918699-0.039909-0.701988-0.173962-1.38351-0.286526-2.075265-0.097214-0.610914-0.156566-1.218758-0.311085-1.824555-0.211824-0.829901-0.532119-1.619894-0.847298-2.419096-0.155543-0.39295-0.23536-0.800225-0.416486-1.190105-0.024559-0.052189-0.062422-0.094144-0.086981-0.147356-0.408299-0.858554-0.933255-1.656733-1.463328-2.453888-0.217964-0.330528-0.390903-0.701988-0.626263-1.01512-0.438998-0.586354-0.984421-1.098008-1.490957-1.63729-0.410346-0.436952-0.779759-0.917906-1.222851-1.313925-0.398066-0.356111-0.87595-0.63752-1.306762-0.962931-0.639566-0.484024-1.260713-0.992607-1.948375-1.394766-0.067538-0.038886-0.119727-0.094144-0.186242-0.13303-0.528026-0.302899-1.087774-0.477884-1.630127-0.727571-0.592494-0.272199-1.165546-0.581238-1.781576-0.795109-0.773619-0.272199-1.559519-0.431835-2.348488-0.605797-0.491187-0.10847-0.972141-0.254803-1.470491-0.327458-0.822738-0.119727-1.641383-0.132006-2.465145-0.149403-0.500397-0.010233-0.99056-0.059352-1.490957-0.034792-0.836041 0.045025-1.65264 0.194428-2.474354 0.338714-0.484024 0.084934-0.968048 0.12689-1.449002 0.248663-0.948605 0.23843-1.856277 0.592494-2.759857 0.962931-0.295735 0.121773-0.603751 0.177032-0.896416 0.313132-0.071631 0.034792-0.137123 0.069585-0.208754 0.104377-0.113587 0.053212-0.224104 0.109494-0.337691 0.166799-87.700411 41.149189-114.086361 94.417393-120.741945 131.888819-8.4126 47.39852 9.766434 99.058087 48.632627 138.172943 3.1262 3.145643 6.431479 6.411013 9.846252 9.79611 33.022091 32.634258 74.119091 73.252351 72.814376 121.686457-0.865717 32.215726-21.145599 66.144466-60.260455 100.849896-0.144286 0.127913-0.243547 0.283456-0.38374 0.415462-0.569982 0.534166-1.070378 1.115404-1.570775 1.704828-0.38067 0.448208-0.773619 0.883113-1.110287 1.356904-0.405229 0.572028-0.738827 1.178849-1.082658 1.786693-0.311085 0.552585-0.63752 1.089821-0.893346 1.662873-0.274246 0.60989-0.467651 1.242294-0.681522 1.876744-0.201591 0.604774-0.422625 1.198292-0.565888 1.816369-0.155543 0.662079-0.225127 1.334391-0.315178 2.010797-0.079818 0.618077-0.180102 1.228991-0.203638 1.852184-0.024559 0.662079 0.030699 1.323135 0.070608 1.988284 0.039909 0.668219 0.068562 1.329275 0.172939 1.992377 0.094144 0.588401 0.258896 1.168616 0.408299 1.755993 0.185218 0.738827 0.375553 1.470491 0.64673 2.189875 0.067538 0.182149 0.088004 0.367367 0.161682 0.547469 0.090051 0.218988 0.25685 0.375553 0.353041 0.589424 0.642636 1.437745 1.453095 2.807952 2.452865 4.101411 0.207731 0.26913 0.37453 0.567935 0.594541 0.823761 0.082888 0.098237 0.137123 0.211824 0.223081 0.309038 1.128707 1.270946 2.399653 2.321882 3.741207 3.242857 0.353041 0.242524 0.732687 0.413416 1.100054 0.632403 1.203408 0.719384 2.448772 1.306762 3.752464 1.757017 0.484024 0.168846 0.951675 0.332575 1.446955 0.464581 1.639337 0.433882 3.305279 0.720408 4.997827 0.740874 0.076748 0 0.148379 0.032746 0.224104 0.032746 0.405229 0 0.816598-0.093121 1.224898-0.11768 0.828878-0.050142 1.659803-0.088004 2.480494-0.240477 0.391926-0.073678 0.775666-0.221034 1.165546-0.318248 0.865717-0.213871 1.728364-0.437975 2.568499-0.769526 0.084934-0.033769 0.171915-0.041956 0.255827-0.076748 124.31533-50.723242 158.52241-116.151393 165.321256-162.095795C980.283336 426.876274 952.169021 366.147144 896.677173 321.148277zM931.541215 477.609749c-4.516874 30.516014-23.910573 58.921971-56.836473 84.21503 7.272637-16.612353 11.19804-33.30657 11.648294-50.018184 1.781576-66.11479-48.333822-115.6336-84.921111-151.802358-3.324722-3.285836-6.540973-6.461155-9.577123-9.517771-29.528524-29.716812-43.505863-67.966974-37.413098-102.313224 4.325515-24.334221 18.558681-46.88789 41.756009-66.846454-29.438473 83.777055 6.608511 120.499421 56.196906 157.292396 6.231935 4.608971 12.514012 9.269108 18.596544 14.20656C915.174456 388.646578 937.813059 435.298084 931.541215 477.609749z" p-id="7436" fill="#dbdbdb"></path></svg>