<?xml version="1.0" standalone="no"?><!DOCTYPE svg PUBLIC "-//W3C//DTD SVG 1.1//EN" "http://www.w3.org/Graphics/SVG/1.1/DTD/svg11.dtd"><svg t="1561341695303" class="icon" viewBox="0 0 1024 1024" version="1.1" xmlns="http://www.w3.org/2000/svg" p-id="2119" width="48" height="48" xmlns:xlink="http://www.w3.org/1999/xlink"><defs><style type="text/css"></style></defs><path d="M710.135 256.48h77.748c17.673 0 32-14.327 32-32s-14.327-32-32-32h-77.748c-17.673 0-32 14.327-32 32s14.327 32 32 32zM787.883 287.458h-77.748c-17.673 0-32 14.327-32 32s14.327 32 32 32h77.748c17.673 0 32-14.327 32-32s-14.327-32-32-32zM787.883 382.436h-77.748c-17.673 0-32 14.327-32 32s14.327 32 32 32h77.748c17.673 0 32-14.327 32-32s-14.327-32-32-32zM545.326 636.646l-0.966-349.595c0-17.174-13.925-31.099-31.099-31.099s-31.099 13.925-31.099 31.099l0.966 349.595c-44.96 13.382-83.984 55.024-83.984 104.331 0 60.114 48.732 108.847 108.847 108.847s108.847-48.732 108.847-108.847c0-49.307-26.552-90.948-71.512-104.331z" p-id="2120" fill="#dbdbdb"></path><path d="M642.152 567.988V175.966c0-33.229-16.781-64.234-46.042-85.065-23.1-16.445-52.707-25.502-83.368-25.502-30.661 0-60.269 9.057-83.369 25.502-29.26 20.831-46.042 51.836-46.042 85.065V560.85c-22.444 15.486-41.893 35.096-57.366 58.02-24.513 36.317-37.469 78.74-37.469 122.682 0 29.603 5.812 58.354 17.275 85.456 11.059 26.145 26.876 49.612 47.013 69.75 20.137 20.138 43.604 35.956 69.749 47.014 27.102 11.463 55.854 17.276 85.458 17.276s58.356-5.813 85.458-17.276c26.145-11.059 49.612-26.877 69.75-47.014 20.137-20.138 35.954-43.604 47.013-69.75 11.463-27.102 17.275-55.853 17.275-85.456 0-41.331-11.589-81.611-33.513-116.487a220.334 220.334 0 0 0-51.822-57.077z m-134.161 329.06c-85.879 0-155.495-69.62-155.495-155.496 0-64.358 39.099-119.576 94.836-143.214V175.966c0-25.718 29.287-46.567 65.411-46.567 36.122 0 65.409 20.849 65.409 46.567v426.949c50.589 25.656 85.334 78.03 85.334 138.637 0 85.876-69.616 155.496-155.495 155.496z" p-id="2121" fill="#dbdbdb"></path></svg>