<?xml version="1.0" standalone="no"?><!DOCTYPE svg PUBLIC "-//W3C//DTD SVG 1.1//EN" "http://www.w3.org/Graphics/SVG/1.1/DTD/svg11.dtd"><svg t="1558777632238" class="icon" style="" viewBox="0 0 1024 1024" version="1.1" xmlns="http://www.w3.org/2000/svg" p-id="3002" xmlns:xlink="http://www.w3.org/1999/xlink" width="200" height="200"><defs><style type="text/css"></style></defs><path d="M898.1 881.1h-772c-12.4 0-24-6.7-30.3-17.4-6.3-10.7-6.3-24.1-0.2-34.9l0.1-0.2 386-668.5c6.2-10.8 17.8-17.6 30.3-17.6s24.1 6.7 30.3 17.6l385.9 668.4c6.3 10.7 6.3 24.1 0.2 34.9-6.1 10.9-17.8 17.7-30.3 17.7z m-746.1-50h720L512 207.6 152 831.1z" p-id="3003" fill="#f4ea2a"></path><path d="M511.4 427.3c-19.2 0-34.6 15.9-33.9 35.1l5.6 168.1c0.5 15.3 13.1 27.4 28.4 27.4 15.3 0 27.8-12.1 28.4-27.4l5.6-168.1c0.5-19.2-14.9-35.1-34.1-35.1zM511.4 708.1c-9.3-0.1-18.2 3.5-24.7 10.1-6.7 6.3-10.5 15.2-10.4 24.5 0 9.8 3.4 18 10.4 24.6 6.6 6.5 15.5 10.1 24.7 9.9 9.2 0.1 18.2-3.4 24.7-9.9 6.8-6.4 10.6-15.3 10.4-24.6 0.1-9.2-3.6-18.1-10.4-24.5-6.5-6.6-15.4-10.3-24.7-10.1z" p-id="3004" fill="#f4ea2a"></path></svg>