<?xml version="1.0" standalone="no"?><!DOCTYPE svg PUBLIC "-//W3C//DTD SVG 1.1//EN" "http://www.w3.org/Graphics/SVG/1.1/DTD/svg11.dtd"><svg t="1558777897601" class="icon" style="" viewBox="0 0 1024 1024" version="1.1" xmlns="http://www.w3.org/2000/svg" p-id="11431" xmlns:xlink="http://www.w3.org/1999/xlink" width="200" height="200"><defs><style type="text/css"></style></defs><path d="M852.548816 614.277206l-0.920956-9.107225c-0.204657-1.534926-0.409313-3.172179-0.818626-5.935045-0.61397-5.321075-1.330269-10.744479-2.148896-15.860898-0.61397-3.990806-1.432597-8.083941-2.251224-12.074748l-1.227941-5.935045c-20.158689-94.858399-77.564905-205.680024-170.683721-329.292695-67.536724-89.639652-130.980314-154.515839-134.254822-157.790347 0 0-3.581493-3.274508-7.162986-5.935045-10.335165-7.879285-24.865794-7.776956-35.200959 0.102328-3.581493 2.660538-7.162986 6.037374-8.18627 7.060658-6.753672 6.856001-67.536724 69.583292-133.129209 156.664734-93.118817 123.612671-150.627361 234.331968-170.581393 328.678725l-1.330269 6.446687c-0.818627 4.093135-1.637254 8.18627-2.251224 11.870091-0.920955 5.423404-1.637254 10.846807-2.148896 15.656241l-0.204657 1.739582c-0.204657 1.534926-0.409313 3.069851-0.61397 4.502449l-1.023284 9.925852c-0.61397 7.265314-1.023284 14.939942-1.023283 22.512241 0 2.148896 0.102328 4.297792 0.102328 6.242031l0.102328 4.911761c0.102328 3.581493 0.204657 7.060658 0.409314 10.539822 0.306985 4.707105 0.818627 9.516538 1.432597 14.428301l0.818627 7.162986c0.818627 5.321075 1.739582 10.64215 2.865194 15.963225l1.125612 5.628061c1.22794 5.321075 2.558209 10.64215 3.990807 15.65624 0.61397 2.046567 1.125612 4.093135 1.739582 5.935046 1.534926 5.01409 3.172179 9.925852 5.01409 14.939942 0.920955 2.455881 1.841911 4.809433 2.762866 7.162986 1.739582 4.40012 3.581493 8.697911 5.423404 12.893374 1.330269 2.865194 2.762866 5.730389 4.40012 9.004897l2.353552 4.809433c1.023284 2.046567 2.046567 4.195463 3.17218 6.139703 3.376836 6.139702 6.958329 12.279404 10.64215 17.907464l1.023284 1.841911c5.321075 8.18627 11.153792 16.270211 18.112122 24.968122l2.558209 3.17218c6.344359 7.776956 12.58639 14.632957 20.465674 22.716898 7.060658 7.060658 14.632957 13.916658 22.716898 20.568002l3.479165 2.660538c6.139702 4.911762 12.58639 9.823524 20.874987 15.451584l5.01409 3.479164c6.856001 4.502448 13.916658 8.697911 22.307585 13.405017l3.683821 2.046567c2.455881 1.330269 4.911762 2.455881 7.674628 3.78615l5.62806 2.660538c5.01409 2.558209 10.02818 5.01409 15.144599 7.162986 4.911762 2.046567 9.925852 3.888478 14.735285 5.730388l6.856001 2.55821c2.762866 1.023284 5.525732 2.148896 8.288598 2.967522 7.162986 2.353553 14.4283 4.195463 21.181973 5.935046l3.888478 1.023283c2.046567 0.511642 3.990806 1.125612 5.935045 1.534926 7.572299 1.739582 15.144599 3.069851 21.38663 3.990806l3.172179 0.613971c2.455881 0.409313 5.01409 0.818627 7.5723 1.22794 6.549016 0.920955 13.20036 1.432597 19.749375 1.944239l3.581493 0.306985c3.172179 0.306985 6.344359 0.511642 9.721195 0.716299 3.683821 0.204657 7.469971 0.204657 11.153792 0.204657h11.256121c3.78615 0 7.469971 0 11.256121-0.204657 3.172179-0.102328 6.344359-0.409313 9.618867-0.716299l3.479164-0.306985c6.549016-0.511642 13.20036-1.125612 19.851704-1.944239 2.558209-0.306985 5.01409-0.818627 7.469971-1.22794l2.967523-0.511642c6.549016-1.125612 14.018987-2.353553 21.693614-4.093135 2.353553-0.511642 4.604777-1.125612 6.753673-1.739582l2.967522-0.818627c6.958329-1.841911 14.223643-3.683821 21.284301-5.935046 2.865194-0.920955 5.730389-1.944239 8.288598-2.967522l6.856001-2.55821c5.01409-1.841911 10.02818-3.683821 14.939942-5.730388 5.218747-2.251224 10.232837-4.707105 15.246927-7.265315l5.730389-2.762866c2.251224-1.023284 4.502448-2.046567 7.265314-3.581493l5.218747-2.967522c7.060658-3.990806 14.121315-8.18627 20.977316-12.688718 2.251224-1.534926 4.502448-3.069851 6.651344-4.502449 6.651344-4.604777 13.098031-9.41421 19.340062-14.4283l1.637254-1.22794 2.251224-1.739583c7.674628-6.344359 15.144599-13.20036 22.205257-20.158688l1.432597-1.534926c6.446687-6.446687 12.688718-13.405016 19.237733-21.386629l2.455881-3.069851c6.958329-8.595583 12.791046-16.679524 18.009793-24.763466l1.023284-1.739582c3.888478-6.139702 7.572299-12.177076 10.744479-18.112122 1.22794-2.353553 2.455881-4.604777 3.581493-6.958329l2.148896-4.195463c1.432597-2.967523 2.865194-5.832717 4.297791-8.80024 1.944239-4.297792 3.78615-8.697911 5.525732-12.995703l2.762866-7.162986c1.841911-5.01409 3.479165-9.925852 4.911762-14.735285l1.739582-5.935046c1.534926-5.321075 2.865194-10.539822 4.093135-16.167882l1.125612-5.321075c1.023284-5.321075 2.046567-10.64215 2.865195-15.758569 0.306985-1.841911 0.511642-3.683821 0.61397-5.321076l0.409313-3.376836c0.511642-4.297792 1.023284-8.697911 1.330269-12.893375 0.204657-3.274508 0.306985-6.549016 0.409314-9.823523l0.102328-5.62806c0.102328-2.148896 0.204657-4.297792 0.102328-6.242031-0.204657-7.776956-0.511642-15.349256-1.22794-23.22854z m-61.908664 70.811232l-0.818627 4.40012c-0.920955 4.195463-2.046567 8.493255-3.274508 12.791046l-1.330269 4.604777c-1.22794 3.990806-2.558209 7.879285-3.990806 11.870091l-2.251224 5.730389c-1.330269 3.479165-2.865194 6.958329-4.297792 10.335165-1.125612 2.353553-2.251224 4.707105-3.376836 6.958329l-2.148896 4.297792c-0.818627 1.534926-1.534926 3.172179-2.455881 4.809433-2.558209 4.809433-5.525732 9.721195-9.41421 15.860897-4.195463 6.446687-9.004897 13.098031-14.632957 20.056361l-2.251224 2.660538c-5.321075 6.446687-10.437494 12.074748-16.679524 18.521435-5.730389 5.730389-11.870091 11.358449-18.009793 16.372539l-3.479165 2.762866c-5.116419 4.093135-10.437494 8.083941-15.860897 11.870091l-5.525732 3.683821c-5.62806 3.683821-11.563106 7.265314-17.702808 10.744479l-3.888478 2.251224c-1.125612 0.61397-2.353553 1.22794-3.888478 1.841911-1.637254 0.716299-3.274508 1.534926-4.911762 2.353552l-3.683822 1.841911c-3.683821 1.841911-7.265314 3.683821-11.051463 5.218747-3.888478 1.637254-7.879285 3.069851-11.870091 4.502448l-7.879285 2.967523c-1.739582 0.61397-3.376836 1.330269-5.321075 1.944239-5.423404 1.841911-10.949136 3.172179-18.009793 5.01409l-4.40012 1.22794c-1.125612 0.306985-2.251224 0.61397-3.581493 0.920956-6.037374 1.432597-12.074748 2.455881-18.316778 3.479164l-3.78615 0.613971c-1.637254 0.306985-3.274508 0.61397-4.911762 0.818627-5.525732 0.716299-11.051464 1.22794-16.781853 1.637253l-3.888478 0.306986c-2.455881 0.204657-4.809433 0.409313-7.162986 0.511641-2.865194 0.102328-5.730389 0.102328-8.595583 0.102329h-10.949135c-2.865194 0-5.730389 0-8.493255-0.102329-2.455881-0.102328-4.911762-0.306985-7.367643-0.511641l-3.786149-0.306986c-5.525732-0.409313-11.051464-0.818627-16.577196-1.637253l-8.902569-1.534926c-6.037374-1.023284-12.074748-2.046567-18.214449-3.376836-1.330269-0.306985-2.660538-0.716299-4.195464-1.125612l-4.707105-1.227941c-5.935045-1.534926-11.460777-2.967523-17.191166-4.809433-1.637254-0.511642-3.172179-1.125612-5.62806-2.046568l-8.390927-3.069851c-3.683821-1.330269-7.367643-2.660538-10.949135-4.195463-3.78615-1.534926-7.367643-3.376836-11.972419-5.730389l-8.083942-3.888478c-1.023284-0.511642-2.046567-0.920955-2.251224-0.920955l-5.62806-3.274508c-5.832717-3.274508-11.665434-6.753672-17.293495-10.539822l-5.525732-3.78615c-5.423404-3.78615-10.744479-7.674628-15.963225-11.972419l-3.069852-2.353552c-6.446687-5.321075-12.58639-10.949136-19.44239-17.805137-5.321075-5.321075-10.437494-11.051464-15.553912-17.293494l-2.251224-2.660538c-5.730389-7.060658-10.539822-13.712002-13.916659-18.726092l-1.637254-2.762866c-3.069851-4.707105-5.935045-9.618867-8.697911-14.530628-0.920955-1.739582-1.841911-3.581493-2.762866-5.423404l-1.841911-3.581493c-1.125612-2.251224-2.353553-4.604777-3.376836-6.958329-1.534926-3.479165-2.967523-6.958329-4.40012-10.539822-0.716299-1.841911-1.432597-3.683821-2.148896-5.628061-1.432597-3.990806-2.762866-7.879285-3.990806-11.767762l-1.432597-4.809433c-1.22794-4.195463-2.353553-8.390926-3.17218-12.381733l-0.920955-4.707105c-0.818627-4.195463-1.637254-8.390926-2.353552-12.893375l-0.716299-5.832717c-0.409313-3.683821-0.920955-7.469971-1.125612-11.051464-0.204657-2.660538-0.204657-5.321075-0.306985-8.083941l-0.306985-9.311882c0-6.139702 0.306985-12.177076 0.818627-17.498151l1.739582-14.735286c0.511642-4.195463 1.023284-8.493255 1.739582-12.995703 0.511642-3.172179 1.125612-6.344359 2.046568-10.846807l0.920955-4.40012C280.226242 400.820226 464.212651 192.172679 515.479165 136.813031c51.266513 55.359648 235.252923 264.007195 272.705106 440.625962l1.125612 5.423403c0.716299 3.274508 1.330269 6.549016 1.944239 9.925852 0.716299 4.297792 1.22794 8.595583 1.739582 12.791046l1.637254 14.223644c0.511642 5.832717 0.716299 11.870091 0.818627 17.907465l-0.306985 10.232837c-0.102328 2.353553-0.102328 4.809433-0.306985 7.265314-0.204657 3.376836-0.61397 6.651344-1.023284 10.02818l-0.818627 7.162986c-0.61397 4.195463-1.432597 8.390926-2.353552 12.688718z m-591.969621 11.358449z" p-id="11432" fill="#1296db"></path><path d="M746.024983 597.597682c-0.61397-5.321075-3.479165-10.130509-7.674628-13.405017-4.195463-3.172179-9.618867-4.604777-14.325972-3.888478-5.321075 0.61397-10.02818 3.274508-13.302688 7.572299-3.274508 4.195463-4.707105 9.41421-3.990807 14.428301l1.125612 9.516538c0.306985 4.195463 0.511642 8.288598 0.511642 12.381733l-0.204656 6.651344c0 1.841911-0.102328 3.581493-0.204657 5.321075-0.204657 2.353553-0.409313 4.707105-0.716299 7.162986l-0.511642 4.707105c-0.409313 2.967523-1.023284 5.832717-1.534925 8.697912l-0.61397 3.172179c-0.61397 2.967523-1.432597 5.832717-2.148896 8.493255l-1.023284 3.479164c-0.818627 2.762866-1.739582 5.423404-2.762866 8.18627l-1.534925 3.888478c-0.920955 2.455881-1.944239 4.809433-3.069852 7.265314-0.716299 1.739582-1.534926 3.376836-3.376836 6.958329l-2.046567 4.093135c-1.739582 3.172179-3.581493 6.242031-6.037374 10.232837l-0.409313 0.716299c-2.967523 4.502448-6.242031 9.107225-10.232837 14.121315l-1.330269 1.637254c-3.581493 4.297792-7.060658 8.18627-11.563106 12.791046-3.888478 3.888478-8.18627 7.776956-12.381733 11.256121l-2.455881 1.944239c-3.581493 2.865194-7.162986 5.525732-10.949135 8.083941l-3.888478 2.660538c-3.888478 2.558209-7.879285 4.911762-12.177076 7.367642l-11.256121 5.730389c-2.558209 1.22794-5.116419 2.558209-7.674628 3.683821-2.660538 1.125612-5.423404 2.148896-8.18627 3.069852l-2.353552 0.818627c-5.01409 1.841911-9.004897 5.423404-11.256121 10.232837-2.251224 4.809433-2.455881 10.130509-0.716298 15.246927 2.865194 7.776956 10.335165 12.995703 18.623763 12.995703 2.353553 0 4.707105-0.409313 8.493255-1.841911 3.683821-1.330269 7.265314-2.660538 10.744479-4.093135 3.479165-1.432597 6.856001-3.069851 10.335165-4.809433l3.990806-1.944239c1.739582-0.818627 3.479165-1.637254 6.344359-3.17218l2.251224-1.330268c4.911762-2.762866 9.721195-5.730389 14.735286-8.902569l4.297791-2.967522c4.604777-3.172179 8.902568-6.446687 13.20036-9.823524l2.762866-2.148896c5.423404-4.502448 10.539822-9.209553 16.270211-14.939942 4.502448-4.502448 8.80024-9.311882 13.20036-14.632957l1.739582-2.148895c4.809433-5.935045 8.80024-11.563106 13.098031-18.21445 2.660538-4.093135 5.116419-8.18627 7.367643-12.381733 1.023284-1.841911 1.944239-3.683821 3.683821-7.265314 1.125612-2.148896 2.148896-4.297792 3.069851-6.446688 1.330269-2.967523 2.558209-5.935045 4.195464-9.925852l1.534925-3.990806c1.330269-3.479165 2.455881-6.958329 3.479165-10.437494l1.125612-3.888478c1.023284-3.683821 1.944239-7.265314 2.865194-11.051464l0.818627-3.683821c0.716299-3.581493 1.432597-7.162986 1.944239-10.949136l0.818627-6.856001c0.306985-2.660538 0.61397-5.321075 0.818627-7.879284 0.204657-2.455881 0.204657-4.911762 0.306985-7.162986l0.204657-7.879285c0-5.218747-0.306985-10.335165-0.716299-16.167882l-1.330268-10.335165z" p-id="11433" fill="#1296db"></path></svg>